<svg  width="80" height="48" viewBox="0 0 80 48" fill="none" xmlns="http://www.w3.org/2000/svg">
<g>
<rect width="80" height="48" rx="5" fill="#5964E0" />
<path
        d="M18.875 26.125C19.3542 26.125 19.7552 25.9922 20.0781 25.7266C20.4062 25.4609 20.5703 25.1328 20.5703 24.7422C20.5703 24.4297 20.4635 24.1641 20.25 23.9453C20.0417 23.7266 19.7656 23.5312 19.4219 23.3594C19.0781 23.1823 18.7057 23.0104 18.3047 22.8438C17.9089 22.6771 17.5104 22.4974 17.1094 22.3047C16.7135 22.1068 16.349 21.875 16.0156 21.6094C15.6823 21.3438 15.4141 21.0234 15.2109 20.6484C15.0078 20.2734 14.9062 19.8229 14.9062 19.2969C14.9062 18.6458 15.0703 18.0781 15.3984 17.5938C15.7266 17.1042 16.1875 16.724 16.7812 16.4531C17.375 16.1823 18.0651 16.0469 18.8516 16.0469C20.1068 16.0469 21.3099 16.3594 22.4609 16.9844L21.4766 18.9844C20.9661 18.6615 20.4792 18.4427 20.0156 18.3281C19.5521 18.2135 19.1667 18.1562 18.8594 18.1562C18.3958 18.1562 18.0234 18.2552 17.7422 18.4531C17.4661 18.6458 17.3281 18.9036 17.3281 19.2266C17.3281 19.5026 17.4271 19.7396 17.625 19.9375C17.8229 20.1354 18.0833 20.3125 18.4062 20.4688C18.7344 20.625 19.0911 20.7839 19.4766 20.9453C19.8776 21.112 20.2839 21.2943 20.6953 21.4922C21.1068 21.6901 21.487 21.9271 21.8359 22.2031C22.1849 22.4792 22.4635 22.8125 22.6719 23.2031C22.8854 23.5938 22.9922 24.0651 22.9922 24.6172C22.9922 25.3203 22.8125 25.9453 22.4531 26.4922C22.0938 27.0339 21.599 27.4609 20.9688 27.7734C20.3385 28.0807 19.6146 28.2344 18.7969 28.2344C18.0417 28.2344 17.2839 28.1016 16.5234 27.8359C15.763 27.5651 15.0677 27.1849 14.4375 26.6953L15.5625 24.7891C15.8542 25.0443 16.1901 25.2734 16.5703 25.4766C16.9505 25.6797 17.3411 25.8385 17.7422 25.9531C18.1484 26.0677 18.526 26.125 18.875 26.125ZM26.2891 24.7656C26.4297 25.1979 26.6875 25.5495 27.0625 25.8203C27.4427 26.0911 27.8854 26.2266 28.3906 26.2266C28.9323 26.2266 29.3802 26.1406 29.7344 25.9688C30.0938 25.7917 30.4193 25.5651 30.7109 25.2891L32.0703 26.9141C31.4661 27.388 30.8672 27.7135 30.2734 27.8906C29.6849 28.0677 29.1198 28.1562 28.5781 28.1562C27.7135 28.1562 26.9505 27.9818 26.2891 27.6328C25.6276 27.2786 25.1094 26.7943 24.7344 26.1797C24.3594 25.5599 24.1719 24.8568 24.1719 24.0703C24.1719 23.2943 24.3516 22.6042 24.7109 22C25.0703 21.3906 25.5599 20.9115 26.1797 20.5625C26.8047 20.2083 27.513 20.0312 28.3047 20.0312C29.0911 20.0312 29.7891 20.2057 30.3984 20.5547C31.013 20.9036 31.4974 21.3828 31.8516 21.9922C32.2057 22.6016 32.3828 23.2995 32.3828 24.0859V24.7656H26.2891ZM30.0703 23.5156C29.9609 23.0573 29.737 22.6875 29.3984 22.4062C29.0599 22.125 28.6536 21.9844 28.1797 21.9844C27.7005 21.9844 27.2839 22.1276 26.9297 22.4141C26.5807 22.7005 26.3516 23.0677 26.2422 23.5156H30.0703ZM33.625 25.8516C33.625 25.3307 33.7734 24.8646 34.0703 24.4531C34.3724 24.0417 34.7865 23.7161 35.3125 23.4766C35.8385 23.237 36.4401 23.1172 37.1172 23.1172C37.3307 23.1172 37.5547 23.1302 37.7891 23.1562C38.0286 23.1823 38.2682 23.2161 38.5078 23.2578C38.3359 22.4089 37.7188 21.9844 36.6562 21.9844C36.026 21.9844 35.3932 22.2214 34.7578 22.6953L33.9844 20.7969C34.526 20.5365 35.0599 20.3438 35.5859 20.2188C36.112 20.0938 36.612 20.0312 37.0859 20.0312C37.8411 20.0312 38.4948 20.1745 39.0469 20.4609C39.6042 20.7422 40.0365 21.1432 40.3438 21.6641C40.651 22.1797 40.8047 22.7865 40.8047 23.4844V28H38.9141L38.7656 27.1641C38.474 27.4714 38.1172 27.7135 37.6953 27.8906C37.2786 28.0677 36.8203 28.1562 36.3203 28.1562C35.5286 28.1562 34.8802 27.9427 34.375 27.5156C33.875 27.0885 33.625 26.5339 33.625 25.8516ZM35.875 25.3359C35.875 25.5964 35.974 25.8073 36.1719 25.9688C36.375 26.125 36.6406 26.2031 36.9688 26.2031C37.4167 26.2031 37.7917 26.0677 38.0938 25.7969C38.401 25.526 38.5547 25.1927 38.5547 24.7969V24.6406C38.362 24.5781 38.1536 24.5286 37.9297 24.4922C37.7109 24.4557 37.4948 24.4375 37.2812 24.4375C36.8385 24.4375 36.4922 24.5156 36.2422 24.6719C35.9974 24.8281 35.875 25.0495 35.875 25.3359ZM42.6875 28V20.1875H44.6562L44.7656 21.3047C45.3333 20.4557 46.1146 20.0312 47.1094 20.0312C47.4479 20.0312 47.7969 20.0833 48.1562 20.1875L47.8438 22.1328C47.5417 22.0339 47.2448 21.9844 46.9531 21.9844C46.349 21.9844 45.862 22.2083 45.4922 22.6562C45.1224 23.099 44.9375 23.7318 44.9375 24.5547V28H42.6875ZM55.8672 27C55.487 27.3646 55.0312 27.6484 54.5 27.8516C53.974 28.0547 53.401 28.1562 52.7812 28.1562C51.9531 28.1562 51.2135 27.9818 50.5625 27.6328C49.9167 27.2786 49.4062 26.7969 49.0312 26.1875C48.6562 25.5729 48.4688 24.875 48.4688 24.0938C48.4688 23.3125 48.6562 22.6172 49.0312 22.0078C49.4062 21.3932 49.9167 20.9115 50.5625 20.5625C51.2135 20.2083 51.9531 20.0312 52.7812 20.0312C53.401 20.0312 53.974 20.1328 54.5 20.3359C55.0312 20.5391 55.487 20.8229 55.8672 21.1875L54.2812 22.6797C53.9062 22.2161 53.4062 21.9844 52.7812 21.9844C52.2083 21.9844 51.7344 22.1849 51.3594 22.5859C50.9844 22.987 50.7969 23.4896 50.7969 24.0938C50.7969 24.6979 50.9844 25.2005 51.3594 25.6016C51.7344 26.0026 52.2083 26.2031 52.7812 26.2031C53.4062 26.2031 53.9062 25.9714 54.2812 25.5078L55.8672 27ZM57.3594 28V16.2812H59.6094V20.9453C60.2292 20.3359 61 20.0312 61.9219 20.0312C63.9323 20.0312 64.9375 21.2969 64.9375 23.8281V28H62.6875V23.8125C62.6875 23.224 62.5625 22.7734 62.3125 22.4609C62.0677 22.1432 61.7161 21.9844 61.2578 21.9844C60.7682 21.9844 60.3698 22.1562 60.0625 22.5C59.7604 22.8385 59.6094 23.2786 59.6094 23.8203V28H57.3594Z"
        fill="white" />
</g>
<defs>
<clipPath id="clip0_0_2525">
    <rect width="80" height="48" fill="white" />
</clipPath>
</defs>
        </svg>